<?xml version="1.0" encoding="utf-8"?>
<!-- Generator: Adobe Illustrator 27.5.0, SVG Export Plug-In . SVG Version: 6.00 Build 0)  -->
<svg version="1.1" xmlns="http://www.w3.org/2000/svg" xmlns:xlink="http://www.w3.org/1999/xlink" x="0px" y="0px"
	 viewBox="0 0 2333 1714.742" style="enable-background:new 0 0 2333 1714.742;" xml:space="preserve">
<g id="Bg">
	<rect style="opacity:0;fill:#FFFFFF;" width="2333" height="1714.74"/>
</g>
<g id="Layer_1">
	<g>
		<g>
			<path style="fill:#0D3285;" d="M1361.785,361.209c0.069,0.321,0.115,0.706,0.176,1.049h97.21l-95.184,126.956
				c3.245,1.796,6.479,4.198,9.268,7.544c10.426,12.514-3.129,50.051-3.129,50.051s0.006-0.348,0.012-0.839
				c-6.462,18.616-18.577,34.793-30.533,36.854c-4.308,0.743-8.303,0.493-11.954-0.386c-1.378,9.676-2.852,19.143-4.392,28.31
				c1.252-5.149,1.927-8.343,1.927-8.343s-15.073,92.404-22.281,100.923c-4.035,4.769-18.951,14.052-31.303,21.304l3.213,23.255
				c-0.061-3.307-0.09-5.239-0.09-5.239s1.283,12.163,3.323,28.655l5.855,42.391c3.692,23.544,7.97,44.455,11.793,46.913
				c5.143,3.307,38.712,16.714,85.339,45.973l57.022-83.882v-16.774h11.404l35.831-52.708h-41.607V578.235h160.558l146.818-215.978
				h89.167v-0.218h34.012v216.196h24.542V335.592h-1.555V561.82h-10.021V347.885h-175.712c0,0,6.868-9.705,7.155-12.294h-371.496
				C1352.812,339.959,1358.876,347.628,1361.785,361.209z"/>
		</g>
		<g>
			<polygon style="fill:#0D3285;" points="1874.24,753.216 1874.24,899.052 1898.078,899.052 1898.078,951.103 1874.24,951.103 
				1874.24,1125.339 1898.782,1125.339 1898.782,753.216 			"/>
		</g>
		<g>
			<path style="fill:#0D3285;" d="M1874.24,1457.849h-1.008v13.747H458.062v-12.396l-0.376,0.01v-339.036
				c-18.312,7.951-28.712,11.804-28.712,11.804v159.451c2.236-1.887,4.144-3.648,4.144-3.648v201.155h186.873v10.895h1080.434
				v-10.895h186.871v-201.155c0,0,11.31,10.495,11.31,7.779v204.271h0.175v-368.889h-24.542V1457.849z"/>
		</g>
		<g>
			<path style="fill:#171932;" d="M1438.057,899.052h161.959l22.95-41.076h-184.909v-35.277l-57.022,83.882
				c17.445,10.946,36.724,24.142,57.022,39.832V899.052z"/>
		</g>
		<g>
			<polygon style="fill:#171932;" points="1645.566,817.525 1681.498,753.216 1485.292,753.216 1449.46,805.924 1645.566,805.924 
							"/>
		</g>
		<g>
			<path style="fill:#171932;" d="M1361.961,362.258c4.677,26.705-15.817,121.989-15.817,121.989s8.955,0.05,17.843,4.967
				l95.184-126.956H1361.961z"/>
		</g>
		<g>
			<polygon style="fill:#171932;" points="1829.391,488.527 1829.391,578.235 1874.24,578.235 1874.24,362.04 1840.228,362.04 
				1840.228,362.258 1751.061,362.258 1604.243,578.235 1779.267,578.235 			"/>
		</g>
		<g>
			<path style="fill:#171932;" d="M1444.061,951.103c20.432,16.141,41.791,34.783,63.309,56.301
				c7.885,7.885,13.815,16.234,18.4,24.529l45.162-80.83H1444.061z"/>
		</g>
		<g>
			<polygon style="fill:#0D3285;" points="662.445,1424.929 683.695,1424.929 795.88,1423.51 810.609,1227.307 			"/>
		</g>
		<g>
			<polygon style="fill:#0D3285;" points="1779.267,578.235 1829.391,578.235 1829.391,488.527 			"/>
		</g>
		<g>
			<path style="fill:#0D3285;" d="M1645.566,857.976h-22.601l-22.95,41.076h229.375V753.216h-147.892l-35.932,64.309V857.976z
				 M1790.1,805.924v52.052h-81.303v-52.052H1790.1z"/>
		</g>
		<g>
			<path style="fill:#0D3285;" d="M1525.77,1031.934c5.195,9.4,8.601,18.7,10.758,27.19c0.003-0.002,0.058-0.059,0.058-0.059
				l0.043,0.488c4.828,19.308,3.508,34.238,3.508,35.667c0,0.22-0.169-0.138-0.415-0.735l29.217,330.034l30.632-0.517
				l214.393-472.898h-243.032L1525.77,1031.934z"/>
		</g>
		<g>
			<path style="fill:#171932;" d="M457.687,1459.21l0.376-0.01v12.396h1415.17v-13.747h1.008v-326.907h-55.332v-5.603h55.332
				V951.103h-60.275l-214.393,472.898l-30.632,0.517l4.052,45.772h-80.705h-69.864c0,0,0.005-0.203,0.01-0.527H967.495l85.072-4.878
				c0,0-40.509-130.798-72.204-185.044c-24.388-41.737-106.814-190.839-111.738-211.439c-4.926-20.597,60.745-92.543,98.517-120.883
				c55.726-41.81,97.173-55.741,104.429-57.98c-2.661-2.685-3.264-4.071-3.264-4.071l0.38-2.971c-0.124-0.105-0.257-0.19-0.38-0.295
				l5.496-39.789l15.292-119.815c-4.19-3.046-7.938-6.103-10.845-9.099c-0.009-0.007-0.015-0.02-0.023-0.027
				c-4.234-3.265-8.383-6.685-11.14-9.545c-10.225-10.606-15.083-28.225-23.479-68.166c-3.4-16.171-6.64-37.574-9.348-57.872
				c-5.921,3.799-13.459,6.465-22.333,4.935c-22.741-3.921-46.265-58.809-29.799-84.687c6.247-9.817,16.333-12.169,26.445-11.327
				c-5.955-44.813-20.703-42.024-36.763-94.373c-6.025-19.645-5.883-39.38-1.128-56.846H601.767
				c0.286,2.588,7.155,12.294,7.155,12.294h-175.71V561.82h-4.238v87.05h0.459v5.603h-0.459V776.99H565.13v5.602H428.974v349.385
				c0,0,10.401-3.853,28.712-11.804V1459.21z M909.842,1185.806c30.269,64.482,44.162,284.732,44.162,284.732H792.349l3.531-47.027
				l-112.185,1.418h-21.25l148.164-197.621l12.022-160.151c0,0,33.561,32.828,36.289,40.757c0,0,0.007,0.043,0.008,0.049
				C876.052,1128.618,895.777,1155.843,909.842,1185.806z"/>
		</g>
		<g>
			<rect x="1829.391" y="753.216" style="fill:#171932;" width="44.849" height="145.836"/>
		</g>
		<g>
			<path style="fill:#D4D7FF;" d="M1887.206,347.885V561.82h10.021V335.592v-0.651h-178.939c0.315,0,0.405,0.253,0.36,0.651
				c-0.287,2.588-7.155,12.294-7.155,12.294H1887.206z"/>
		</g>
		<g>
			<path style="fill:#D4D7FF;" d="M1887.297,1287.781v201.155h-186.871v10.895v0.581h198.181v-0.581V1295.56
				C1898.607,1298.276,1887.297,1287.781,1887.297,1287.781z"/>
		</g>
		<g>
			<path style="fill:#D4D7FF;" d="M433.212,347.885h175.71c0,0-6.87-9.705-7.155-12.294c-0.044-0.398,0.044-0.651,0.359-0.651
				h-178.94v226.88h5.788h4.238V347.885z"/>
		</g>
		<g>
			<path style="fill:#D4D7FF;" d="M433.118,1488.936v-201.155c0,0-1.907,1.76-4.144,3.648c-3.23,2.731-7.166,5.738-7.166,4.132
				v204.851h198.183v-0.581v-10.895H433.118z"/>
		</g>
		<g>
			<polygon style="fill:#0C8FE7;" points="565.13,782.592 565.13,776.99 428.974,776.99 297.225,776.99 297.225,654.473 
				428.974,654.473 429.433,654.473 429.433,648.87 428.974,648.87 291.625,648.87 291.625,782.592 428.974,782.592 			"/>
		</g>
		<g>
			<polygon style="fill:#0C8FE7;" points="1818.908,1125.339 1818.908,1130.942 1874.24,1130.942 1898.782,1130.942 
				1956.226,1130.942 1956.226,1250.9 1898.977,1250.9 1898.977,1256.502 1961.825,1256.502 1961.825,1125.339 1898.782,1125.339 
				1874.24,1125.339 			"/>
		</g>
		<g>
			<path style="fill:#D4D7FF;" d="M1829.391,578.235h-50.123h-175.024h-160.558v174.981h41.607h196.206h147.892h44.849h24.542
				h142.593V578.235h-142.593h-24.542H1829.391z M1520,629.187h277.187v22.406H1520V629.187z M1970.24,700.811H1520v-22.406h450.24
				V700.811z M1967.176,629.187v22.406h-126.163v-22.406H1967.176z"/>
		</g>
		<g>
			<polygon style="fill:#D4D7FF;" points="1622.965,857.976 1645.566,857.976 1645.566,817.525 1645.566,805.924 1449.46,805.924 
				1438.057,805.924 1438.057,822.699 1438.057,857.976 			"/>
		</g>
		<g>
			<path style="fill:#D4D7FF;" d="M1829.391,899.052h-229.375h-161.959v47.361c-20.298-15.69-39.577-28.886-57.022-39.832
				c-46.627-29.259-80.196-42.666-85.339-45.973c-3.824-2.458-8.101-23.37-11.793-46.913c-2.249-14.355-4.278-29.655-5.855-42.391
				c-2.04-16.492-3.323-28.655-3.323-28.655s0.029,1.932,0.09,5.239c0.463,25.299,2.936,134.953,11.051,139.589
				c0.094,0.055,0.287,0.168,0.408,0.238c11.769,6.838,152.066,92.468,194.226,121.655c22.791,15.778,38.205,39.943,47.668,58.654
				c6.734,13.314,10.438,23.753,11.554,26.46c0.246,0.597,0.415,0.955,0.415,0.735c0-1.429,1.321-16.359-3.508-35.667
				c-0.036-0.145-0.065-0.283-0.101-0.428c-2.157-8.49-5.563-17.79-10.758-27.19c-4.585-8.295-10.515-16.644-18.4-24.529
				c-21.519-21.518-42.877-40.16-63.309-56.301h126.872h243.032h60.275h23.838v-52.052h-23.838H1829.391z"/>
		</g>
		<g>
			<rect x="1708.798" y="805.924" style="fill:#D4D7FF;" width="81.303" height="52.051"/>
		</g>
		<g>
			<path style="fill:#0C8FE7;" d="M1434.433,1234.491c6.216-30.601,14.568-49.692,20.159-59.978
				c21.543-46.631,57.404-88.758,73.575-106.489c-9.463-18.711-24.877-42.876-47.668-58.654
				c-42.16-29.187-182.457-114.817-194.226-121.655c-33.675,25.85-74.451,37.707-114.716,35.555
				c0.173,0.185,0.375,0.402,0.375,0.402s-44.869-0.098-72.599-15.198c-16.197-8.819-24.025-15.164-27.763-18.935
				c-7.256,2.238-48.703,16.17-104.429,57.98c-37.771,28.34-103.443,100.286-98.517,120.883
				c4.924,20.599,87.35,169.701,111.738,211.439c31.695,54.246,72.204,185.044,72.204,185.044l-85.072,4.878h454.937
				C1422.659,1458.95,1426.665,1272.74,1434.433,1234.491z M1147.305,923.888c1.254-0.114,2.584,0.838,2.729,2.203l15.022,140.469
				l58.255-1.975l13.898-143.602c0.134-1.371,1.477-2.331,2.709-2.233c1.366,0.134,2.362,1.345,2.233,2.709l-14.11,145.766
				c-0.123,1.239-1.144,2.2-2.39,2.243l-62.813,2.134c-1.267,0-2.331-0.954-2.467-2.221l-15.269-142.768
				C1144.955,925.254,1145.939,924.03,1147.305,923.888z"/>
		</g>
		<g>
			<path style="fill:#D4D7FF;" d="M1278.048,771.304c1.577,12.736,3.606,28.036,5.855,42.391L1278.048,771.304z"/>
		</g>
		<g>
			<path style="fill:#D4D7FF;" d="M1207.421,799.114c-24.44,15.518-86.301,0.852-93.209-8.555c0,0,2.499,48.72,5.908,65.258
				c3.263,15.822,47.607,63.369,51.438,67.453c40.265,2.152,81.042-9.705,114.716-35.555c-0.121-0.07-0.314-0.183-0.408-0.238
				c-8.115-4.636-10.588-114.29-11.051-139.589l-3.213-23.255c-2.66,1.562-5.183,3.019-7.471,4.327
				C1250.955,748.898,1223.235,789.074,1207.421,799.114z M1145.484,815.446c0,0,12.883,16.311,38.945,16.346
				c22.665,0.031,33.39-18.305,33.39-18.305s-3.476,31.101-45.887,42.448C1129.527,867.281,1145.484,815.446,1145.484,815.446z"/>
		</g>
		<g>
			<path style="fill:#D4D7FF;" d="M1073.803,842.412l-5.496,39.789c0.124,0.105,0.257,0.19,0.38,0.295L1073.803,842.412z"/>
		</g>
		<g>
			<path style="fill:#D4D7FF;" d="M1056.204,611.778l100.128,146.428l-0.006-0.002c1.848,0.846,3.635,1.655,5.339,2.417
				c13.099,5.868,27.6,5.868,40.697,0c14.16-6.341,33.703-15.639,51.994-26.169c-0.369,0.203-0.602,0.331-0.602,0.331
				s20.315-15.729,39.974-45.871c15.042-23.065,25.457-61.391,29.531-78.164c1.54-9.166,3.014-18.634,4.392-28.31
				c3.651,0.88,7.646,1.129,11.954,0.386c11.957-2.061,24.071-18.238,30.533-36.854c0.076-5.423,0.082-38.346-10.438-45.041
				c-6.258-3.982-13.375-4.21-18.616-3.622c-0.296,1.064-1.118,3.784-2.461,6.824c4.201-3.372,9.068-4.758,14.51-2.706
				c13.699,5.168,9.118,27.449,9.118,27.449s-7.98-8.636-17.101,0s-8.135,39.248-8.135,39.248s-14.097-1.14-14.666-20.522
				c-0.288-9.758,2.698-23.199,8.157-33.239c-0.675,0.319-1.378,0.544-2.115,0.645l-0.005,0.043c0,0-0.15,0.006-0.232,0.01
				c-0.213,0.021-0.44-0.007-0.658-0.007c-0.33-0.003-0.717-0.036-1.214-0.092c-0.169-0.027-0.332-0.034-0.503-0.075
				c-3.45-0.504-9.657-2.593-14.305-11.092c-6.744-12.33-2.157-77.235-2.157-77.235s-34.182,2.731-47.879-22.613
				c-5.233-9.68-8.505-19.469-10.625-27.21c-1.78-2.45-3.434-4.952-5.002-7.477c-2.997,25.261-15.901,92.043-60.504,111.307
				c-7.854,3.391-15.247,5.944-22.329,7.923c-0.016,0.012,0.022,0.034,0.002,0.046c-27.111,18.015-22.863,42.005-22.863,42.005
				s-6.739,2.299-21.193,2.439c1.107,2.102,1.792,4.462,1.792,7.003c0,8.358-6.773,15.133-15.132,15.133
				c-8.358,0-15.132-6.775-15.132-15.133c0-1.316,0.22-2.569,0.537-3.785c-12.092,2.423-22.684,5.339-22.684,5.339l11.628-34.895
				l-7.707,2.149c0,0,12.034-10.469,23.013-17.702c-7.737-1.27-15.344-2.811-23.013-4.286c-7.918-1.521-28.115-7.859-35.462-10.196
				l-1.1,32.384c0.041,2.453-0.07,4.581-0.261,6.526C1039.929,536.486,1048.447,575.934,1056.204,611.778z M1225.569,638.809
				c0,0,10.744-3.095,16.794,0.765c6.875,4.389,5.414,14.195,5.414,14.195S1227.12,638.809,1225.569,638.809z M1292.386,541.534
				c0,0-10.592-2.916-22.685-5.339c0.315,1.217,0.537,2.469,0.537,3.785c0,8.358-6.774,15.133-15.132,15.133
				c-8.357,0-15.133-6.775-15.133-15.133c0-2.541,0.686-4.9,1.794-7.003c-14.455-0.14-21.195-2.439-21.195-2.439
				s27.195-14.317,46.2-5.451C1285.781,533.95,1292.386,541.534,1292.386,541.534z M1220.51,484.478
				c-3.049-4.463-1.161-8.749-1.161-8.749l8.278,9.836c0.584-0.076,1.165-0.149,1.763-0.222c-0.247-0.288-0.514-0.535-0.741-0.865
				c-3.046-4.463-1.161-8.749-1.161-8.749l7.561,8.987c0.397-0.038,0.787-0.07,1.184-0.107c-0.036-0.049-0.079-0.082-0.113-0.131
				c-3.047-4.463-1.158-8.749-1.158-8.749l7.119,8.458c3.967-0.194,7.55-0.158,10.078,0.291c10.509,1.858,36.304,24.31,36.304,24.31
				l-75.341-21.02c0,0,3.751-0.675,9.009-1.445C1221.553,485.795,1221.002,485.195,1220.51,484.478z M1159.019,569.356
				c0,0-0.266,2.591-0.633,6.566c2.004-13.501,4.379-27.251,6.409-38.362c0.241-1.357,1.544-2.24,2.887-1.997
				c1.35,0.247,2.241,1.54,1.996,2.891c-7.261,39.748-13.053,83.617-10.179,88.215c3.884,2.751,19.335,4.229,28.101,4.457
				c0.531,0.015,0.948,0.306,1.346,0.599c6.216,0.086,11.728-0.201,14.657-1.113c0,0-16.066,18.111-25.924,19.141
				c-5.347,0.559-27.338-15.323-28.157-17.606C1148.815,630.177,1159.019,569.356,1159.019,569.356z M1117.708,639.575
				c6.048-3.86,16.793-0.765,16.793-0.765c-1.548,0-22.207,14.96-22.207,14.96S1110.833,643.964,1117.708,639.575z"/>
		</g>
		<g>
			<path style="fill:#D4D7FF;" d="M1028.313,528.68c-1.129,0.279-2.332,0.168-3.552-0.131c1.83,6.674,2.768,13.466,2.604,19.05
				c-0.57,19.383-14.669,20.522-14.669,20.522s0.989-30.612-8.134-39.248c-9.12-8.636-17.102,0-17.102,0s-4.581-22.281,9.123-27.449
				c5.037-1.899,9.588-0.861,13.569,1.974c-0.429-6.102-0.936-11.733-1.581-16.588c-10.111-0.842-20.198,1.509-26.445,11.327
				c-16.465,25.878,7.059,80.766,29.799,84.687c8.874,1.529,16.411-1.136,22.333-4.935
				C1031.69,558.669,1029.605,540.494,1028.313,528.68z"/>
		</g>
		<g>
			<path style="fill:#9884B5;" d="M1095.24,491.086c5.095-3.357,9.963-6.019,13.296-6.608c2.527-0.448,6.11-0.484,10.076-0.291
				l5.327-6.331c-17.085,3.313-29.307,2.647-29.307,2.647l23.223-24.015c-32.185,15.205-62.726,13.535-62.726,13.535l18.367-18.992
				c-21.858-2.309-35.563-8.715-35.563-8.715l-1.167,34.287c7.347,2.338,27.543,8.675,35.462,10.196
				C1079.896,488.275,1087.502,489.816,1095.24,491.086z"/>
		</g>
		<g>
			<path style="fill:#9884B5;" d="M1124.571,484.478c-0.034,0.049-0.077,0.082-0.112,0.131c0.394,0.037,0.786,0.069,1.182,0.107
				l7.561-8.987c0,0,1.886,4.286-1.159,8.749c-0.226,0.33-0.494,0.577-0.74,0.865c0.596,0.072,1.178,0.146,1.761,0.222l8.276-9.836
				c0,0,1.89,4.286-1.157,8.749c-0.491,0.717-1.043,1.319-1.623,1.844c5.256,0.77,9.008,1.445,9.008,1.445l-67.635,18.872
				l-11.628,34.895c0,0,6.605-7.583,25.612-16.447c19.009-8.865,46.2,5.451,46.2,5.451s-4.247-23.989,22.863-42.005
				c0.02-0.012-0.019-0.034-0.002-0.046c7.082-1.978,14.475-4.532,22.329-7.923c44.604-19.265,57.507-86.047,60.504-111.307
				c-3.453-5.569-6.412-11.175-8.858-16.419c-0.821,0.232-1.669,0.561-2.542,0.987c-3.714,15.498-9.361,34.566-17.585,52.074
				c-1.816,3.986-3.951,7.984-6.262,11.967c-0.576,1.001-1.115,2.039-1.71,3.018c-0.101,0.164-0.23,0.304-0.332,0.469
				c-3.741,6.016-8.057,11.947-13.144,17.609c-21.508,23.944-48.567,34.107-69.253,38.435
				C1126.421,479.04,1126.495,481.659,1124.571,484.478z"/>
		</g>
		<g>
			<path style="fill:#9884B5;" d="M1321.179,403.447c-4.854,1.891-10.677,3.339-17.585,3.339c-7.23,0-15.547-1.53-24.835-5.634
				c-11.273-4.98-20.525-14.191-27.945-24.416c2.12,7.741,5.392,17.53,10.625,27.21c13.697,25.343,47.879,22.613,47.879,22.613
				s-4.587,64.905,2.157,77.235c4.647,8.499,10.854,10.588,14.305,11.092c-1.418-0.344-2.929-1.112-4.541-2.453
				C1309.96,503.039,1318.395,426.267,1321.179,403.447z"/>
		</g>
		<g>
			<path style="fill:#9884B5;" d="M1327.497,515.052c-0.397,0.002-0.799-0.02-1.214-0.092
				C1326.779,515.016,1327.167,515.048,1327.497,515.052z"/>
		</g>
		<g>
			<path style="fill:#9884B5;" d="M1328.387,515.048l0.005-0.043c-0.08,0.01-0.155,0.044-0.237,0.054
				C1328.236,515.054,1328.387,515.048,1328.387,515.048z"/>
		</g>
		<g>
			<path style="fill:#9884B5;" d="M996.583,501.425c-13.704,5.168-9.123,27.449-9.123,27.449s7.982-8.636,17.102,0
				c9.123,8.636,8.134,39.248,8.134,39.248s14.098-1.14,14.669-20.522c0.165-5.584-0.773-12.377-2.604-19.05
				c-6.474-1.59-13.538-10.504-14.155-18.731c-0.02-0.229-0.035-0.461-0.046-0.694c-0.113-2.054-0.273-3.812-0.408-5.726
				C1006.17,500.564,1001.62,499.526,996.583,501.425z"/>
		</g>
		<g>
			<path style="fill:#9884B5;" d="M1330.506,514.36c-5.459,10.04-8.445,23.482-8.157,33.239
				c0.569,19.383,14.666,20.522,14.666,20.522s-0.986-30.612,8.135-39.248s17.101,0,17.101,0s4.581-22.281-9.118-27.449
				c-5.442-2.052-10.31-0.666-14.51,2.706C1336.837,508.173,1334.127,512.649,1330.506,514.36z"/>
		</g>
		<g>
			<path style="fill:#0D3285;" d="M1218.773,253.822l-0.001-0.002l0.005,0.006c2.758,2.928,5.061,6.04,7.179,9.21
				c7.085,8.524,12.195,15.949,14.847,20.022c13.355,17.107,29.12,36.023,36.171,39.604c13.38,6.793,35.623-2.534,59.056,10.675
				c0.046,0.027,0.075,0.062,0.119,0.086c-0.891-2.29-1.474-3.492-1.474-3.492s3.653,0.395,8.346,2.945
				c-16.872-12.287-44.011-10.392-57.714-9.8l60.491-17.968c0,0-21.509-13.822-45.782-5.631
				c-11.799,3.984-20.404,11.65-25.993,18.144c-11.942-21.99-57.605-108.076-124.127-102.962
				c23.783,1.943,44.966,16.596,61.093,32.189C1213.814,249.055,1216.454,251.362,1218.773,253.822z"/>
		</g>
		<g>
			<path style="fill:#0D3285;" d="M971.808,392.437c16.06,52.349,30.808,49.56,36.763,94.373c0.645,4.855,1.151,10.486,1.581,16.588
				c0.135,1.914,0.295,3.672,0.408,5.726c0.01,0.233,0.026,0.465,0.046,0.694c0.617,8.226,7.681,17.141,14.155,18.731
				c1.22,0.299,2.423,0.409,3.552,0.131c3.468-0.86,6.266-4.762,7.091-13.165c0.191-1.946,0.302-4.073,0.261-6.526l1.1-32.384
				l1.167-34.287c0,0,13.705,6.406,35.563,8.715l-18.367,18.992c0,0,30.541,1.67,62.726-13.535l-23.223,24.015
				c0,0,12.223,0.666,29.307-2.647l1.791-2.128c0,0,0.226,0.71,0.397,1.669c20.685-4.328,47.745-14.491,69.253-38.435
				c5.087-5.662,9.403-11.594,13.144-17.609c-24.214,38.968-85.193,42.197-85.193,42.197s32.416-20.136,45.933-34.925
				c13.515-14.791,11.572-31.079,11.572-31.079s-21.765,30.953-60.118,47.62c-28.985,12.595-44.915,10.22-44.915,10.22l18.83-26.212
				c0,0-8.7,11.421-39.504,10.719c-30.803-0.705-53.339-33.916-53.339-33.916s37.038-4.357,66.851-24.451
				c-1.702,0.878-3.405,1.757-5.233,2.504c-12.993,5.305-26.653,7.081-39.088,7.081c-24.039,0-43.502-6.611-44.724-7.032
				c-1.292-0.45-1.976-1.863-1.53-3.159c0.455-1.291,1.859-1.978,3.159-1.533c0.433,0.147,43.968,14.911,80.302,0.05
				c16.095-6.579,26.933-19.334,34.036-31.483c2.254-6.676,2.654-11.432,2.654-11.432s-7.156,17.781-25.988,26.595
				c-21.842,10.223-52.517-2.947-52.517-2.947s36.62-5.312,56.092-74.883c10.123-36.163,47.458-74.976,112.118-50.655
				c-16.831-11.432-36.632-18.711-57.504-13.544c-44.544,11.044-57.986,43.393-67.801,67.006c-3.237,7.8-6.037,14.537-9.478,19.47
				c-11.499,16.48-33.712,18.217-42.558,18.217c-2.123,0-3.474-0.098-3.727-0.121c-1.367-0.107-2.383-1.303-2.271-2.671
				c0.105-1.365,1.215-2.46,2.67-2.272c0.285,0.034,29.201,2.089,41.815-15.991c3.133-4.49,5.837-11,8.969-18.533
				c2.559-6.163,5.356-12.892,8.85-19.704c-6.198,7.903-11.492,13.144-19.823,12.09c-37.385-4.74-66.67,21.313-76.385,57.014
				C965.925,353.058,965.783,372.792,971.808,392.437z"/>
		</g>
		<g>
			<path style="fill:#0D3285;" d="M1340.717,392.56c0,0,1.277-14.913-10.652-26.733c-11.93-11.818-41.601-12.394-41.601-12.394
				s4.958,8.876,14.287,18.181c8.029,8.009,22.413,12.794,26.278,13.977c2.141-1.897,5.369-1.954,7.497,0.008
				c2.253,2.102,2.408,5.607,0.329,7.877c-0.442,0.481-5.967,6.188-15.675,9.97c-2.784,22.82-11.219,99.592,0.06,108.985
				c1.612,1.341,3.123,2.109,4.541,2.453c0.17,0.041,0.334,0.048,0.503,0.075c0.415,0.072,0.818,0.094,1.214,0.092
				c0.218,0,0.444,0.028,0.658,0.007c0.082-0.009,0.156-0.043,0.237-0.054c0.737-0.102,1.44-0.327,2.115-0.645
				c3.621-1.711,6.331-6.187,8.117-10.229c1.344-3.04,2.165-5.76,2.461-6.824c-4.364,0.49-7.45,1.538-7.45,1.538
				c3.802-6.692,8.318-38.476,11.89-82.856c1.188-14.764,0.925-27.752-0.056-38.945C1343.4,385.956,1340.717,392.56,1340.717,392.56
				z"/>
		</g>
		<g>
			<path style="fill:#0D3285;" d="M1283.29,390.901c23.573,10.419,38.788,0.539,43.642-3.492c-3.887,1.624-11.204,3.868-20.934,3.02
				c-14.691-1.279-32.174-5.54-45.81-24.602c-10.728-14.997-16.642-38.891-19.493-48.697c-0.047,3.526-0.264,5.643-0.264,5.643
				s-0.296,2.263-0.933,6.123C1243.452,340.845,1258.006,379.737,1283.29,390.901z"/>
		</g>
		<g>
			<path style="fill:#0D3285;" d="M1234.412,353.826c0.873-0.426,1.721-0.755,2.542-0.987c-0.53-1.133-1.034-2.245-1.517-3.335
				C1235.123,350.894,1234.764,352.366,1234.412,353.826z"/>
		</g>
		<g>
			<path style="fill:#0D3285;" d="M1216.828,405.9c-1.932,4.115-4.04,8.101-6.262,11.967
				C1212.876,413.884,1215.011,409.886,1216.828,405.9z"/>
		</g>
		<g>
			<path style="fill:#171932;" d="M1220.572,530.538c0,0,6.74,2.299,21.195,2.439c-1.108,2.102-1.794,4.462-1.794,7.003
				c0,8.358,6.776,15.133,15.133,15.133c8.358,0,15.132-6.775,15.132-15.133c0-1.316-0.222-2.569-0.537-3.785
				c12.093,2.423,22.685,5.339,22.685,5.339s-6.606-7.583-25.614-16.447C1247.767,516.222,1220.572,530.538,1220.572,530.538z"/>
		</g>
		<g>
			<path style="fill:#171932;" d="M1288.463,508.788c0,0-25.795-22.452-36.304-24.31c-2.529-0.448-6.111-0.484-10.078-0.291
				l-7.119-8.458c0,0-1.889,4.286,1.158,8.749c0.034,0.049,0.077,0.082,0.113,0.131c-0.397,0.037-0.787,0.069-1.184,0.107
				l-7.561-8.987c0,0-1.885,4.286,1.161,8.749c0.226,0.33,0.493,0.577,0.741,0.865c-0.597,0.072-1.178,0.146-1.763,0.222
				l-8.278-9.836c0,0-1.888,4.286,1.161,8.749c0.492,0.717,1.043,1.317,1.621,1.844c-5.257,0.77-9.009,1.445-9.009,1.445
				L1288.463,508.788z"/>
		</g>
		<g>
			<path style="fill:#171932;" d="M1093.918,525.087c-19.007,8.863-25.612,16.447-25.612,16.447s10.592-2.916,22.684-5.339
				c-0.316,1.217-0.537,2.469-0.537,3.785c0,8.358,6.774,15.133,15.132,15.133c8.359,0,15.132-6.775,15.132-15.133
				c0-2.541-0.685-4.9-1.792-7.003c14.454-0.14,21.193-2.439,21.193-2.439S1112.927,516.222,1093.918,525.087z"/>
		</g>
		<g>
			<path style="fill:#171932;" d="M1108.535,484.478c-3.333,0.589-8.2,3.251-13.296,6.608
				c-10.979,7.232-23.013,17.702-23.013,17.702l7.707-2.149l67.635-18.872c0,0-3.751-0.675-9.008-1.445
				c0.58-0.525,1.132-1.127,1.623-1.844c3.047-4.463,1.157-8.749,1.157-8.749l-8.276,9.836c-0.583-0.076-1.165-0.149-1.761-0.222
				c0.246-0.288,0.513-0.535,0.74-0.865c3.046-4.463,1.159-8.749,1.159-8.749l-7.561,8.987c-0.395-0.038-0.787-0.07-1.182-0.107
				c0.035-0.049,0.078-0.082,0.112-0.131c1.924-2.818,1.85-5.438,1.555-7.08c-0.17-0.959-0.397-1.669-0.397-1.669l-1.791,2.128
				l-5.327,6.331C1114.646,483.994,1111.062,484.03,1108.535,484.478z"/>
		</g>
		<g>
			<path style="fill:#9884B5;" d="M1177.679,649.755c9.858-1.03,25.924-19.141,25.924-19.141c-2.929,0.912-8.441,1.199-14.657,1.113
				c0.626,0.466,1.093,1.107,1.07,1.945c-0.033,1.352-1.168,2.418-2.51,2.418c-2.481-0.069-24.444-0.775-31.147-5.626
				c-4.33-3.134-1.86-28.363,2.027-54.541c0.368-3.975,0.633-6.566,0.633-6.566s-10.204,60.821-9.498,62.793
				C1150.34,634.431,1172.331,650.313,1177.679,649.755z"/>
		</g>
		<g>
			<path style="fill:#171932;" d="M1156.358,630.463c6.703,4.852,28.666,5.557,31.147,5.626c1.343,0,2.478-1.066,2.51-2.418
				c0.023-0.838-0.443-1.479-1.07-1.945c-0.398-0.294-0.815-0.584-1.346-0.599c-8.766-0.229-24.217-1.707-28.101-4.457
				c-2.874-4.598,2.917-48.467,10.179-88.215c0.245-1.351-0.646-2.643-1.996-2.891c-1.343-0.243-2.646,0.64-2.887,1.997
				c-2.03,11.111-4.405,24.861-6.409,38.362C1154.498,602.099,1152.028,627.328,1156.358,630.463z"/>
		</g>
		<g>
			<path style="fill:#9884B5;" d="M1099.333,908.474c27.73,15.1,72.599,15.198,72.599,15.198s-0.202-0.217-0.375-0.402
				c-3.831-4.084-48.175-51.63-51.438-67.453c-3.41-16.537-5.908-65.258-5.908-65.258c6.908,9.407,68.769,24.073,93.209,8.555
				c15.814-10.04,43.534-50.217,56.709-70.156c-4.77,2.725-8.422,4.748-9.774,5.493c-18.292,10.53-37.834,19.828-51.994,26.169
				c-13.096,5.868-27.598,5.868-40.697,0c-1.704-0.762-3.491-1.571-5.339-2.417l0.006,0.002l-100.128-146.428
				c-7.757-35.844-16.275-75.292-20.8-96.263c-0.825,8.404-3.623,12.306-7.091,13.165c1.292,11.814,3.377,29.99,5.946,49.209
				c2.709,20.298,5.948,41.701,9.348,57.872c8.396,39.941,13.254,57.56,23.479,68.166c2.758,2.86,6.906,6.28,11.14,9.545
				c0.008,0.007,0.014,0.02,0.023,0.027c2.907,2.996,6.655,6.053,10.845,9.099l-15.292,119.815l-5.116,40.084l-0.38,2.971
				c0,0,0.603,1.386,3.264,4.071C1075.308,893.309,1083.136,899.655,1099.333,908.474z"/>
		</g>
		<g>
			<path style="fill:#9884B5;" d="M1242.363,639.575c-6.051-3.86-16.794-0.765-16.794-0.765c1.55,0,22.208,14.96,22.208,14.96
				S1249.239,643.964,1242.363,639.575z"/>
		</g>
		<g>
			<path style="fill:#9884B5;" d="M1134.501,638.809c0,0-10.745-3.095-16.793,0.765c-6.874,4.389-5.414,14.195-5.414,14.195
				S1132.953,638.809,1134.501,638.809z"/>
		</g>
		<g>
			<path style="fill:#171932;" d="M1210.566,417.867c2.222-3.866,4.33-7.852,6.262-11.967c8.224-17.508,13.871-36.576,17.585-52.074
				c0.351-1.46,0.71-2.933,1.025-4.322c-5.038-11.393-7.613-20.275-7.869-21.184c-0.838-2.976,0.896-6.067,3.872-6.906
				c2.999-0.874,6.073,0.899,6.916,3.87c0.021,0.079,0.43,1.462,1.142,3.612c0.637-3.86,0.933-6.123,0.933-6.123
				s0.217-2.117,0.264-5.643c2.851,9.806,8.765,33.7,19.493,48.697c13.635,19.062,31.119,23.323,45.81,24.602
				c9.73,0.848,17.047-1.396,20.934-3.02c0.98-0.812,1.575-1.409,1.69-1.529c0.118-0.126,0.279-0.175,0.406-0.288
				c-3.865-1.183-18.249-5.968-26.278-13.977c-9.33-9.305-14.287-18.181-14.287-18.181s29.671,0.576,41.601,12.394
				c11.93,11.82,10.652,26.733,10.652,26.733s2.683-6.604,4.751-15.517c-1.96-22.324-6.847-37.278-9.319-43.621
				c-0.044-0.025-0.073-0.06-0.119-0.086c-23.434-13.208-45.677-3.882-59.056-10.675c-7.05-3.581-22.816-22.497-36.171-39.604
				c1.12,1.722,1.822,2.867,2.031,3.215c0.703,1.173,0.324,2.695-0.848,3.403c-1.169,0.708-2.698,0.33-3.401-0.843
				c-0.32-0.528-20.805-33.922-50.663-54.198c-64.66-24.32-101.995,14.493-112.118,50.655
				c-19.472,69.571-56.092,74.883-56.092,74.883s30.675,13.17,52.517,2.947c18.832-8.814,25.988-26.595,25.988-26.595
				s-0.4,4.756-2.654,11.432c8.799-15.051,11.856-29.168,11.91-29.423c0.272-1.342,1.638-2.233,2.926-1.928
				c1.343,0.275,2.212,1.588,1.928,2.924c-0.387,1.893-9.59,44.378-43.685,61.997c-29.813,20.094-66.851,24.451-66.851,24.451
				s22.537,33.211,53.339,33.916c30.804,0.702,39.504-10.719,39.504-10.719l-18.83,26.212c0,0,15.93,2.375,44.915-10.22
				c38.353-16.667,60.118-47.62,60.118-47.62s1.943,16.288-11.572,31.079c-13.517,14.789-45.933,34.925-45.933,34.925
				s60.979-3.229,85.193-42.197c0.103-0.164,0.231-0.305,0.332-0.469C1209.45,419.906,1209.99,418.868,1210.566,417.867z"/>
		</g>
		<g>
			<path style="fill:#171932;" d="M1218.777,253.826l-0.005-0.006l0.001,0.002c-2.319-2.46-4.959-4.768-7.784-6.975
				c5.647,5.46,10.668,11.015,14.966,16.188C1223.838,259.866,1221.534,256.754,1218.777,253.826z"/>
		</g>
		<g>
			<path style="fill:#171932;" d="M1278.759,401.151c9.288,4.104,17.605,5.634,24.835,5.634c6.908,0,12.731-1.448,17.585-3.339
				c9.709-3.782,15.233-9.49,15.675-9.97c2.079-2.27,1.924-5.775-0.329-7.877c-2.128-1.962-5.357-1.905-7.497-0.008
				c-0.127,0.113-0.288,0.162-0.406,0.288c-0.116,0.12-0.71,0.717-1.69,1.529c-4.854,4.031-20.07,13.912-43.642,3.492
				c-25.284-11.164-39.838-50.056-43.792-62.004c-0.712-2.15-1.121-3.532-1.142-3.612c-0.844-2.971-3.917-4.744-6.916-3.87
				c-2.976,0.839-4.709,3.93-3.872,6.906c0.257,0.909,2.831,9.79,7.869,21.184c0.483,1.09,0.987,2.202,1.517,3.335
				c2.446,5.243,5.405,10.85,8.858,16.419c1.568,2.525,3.222,5.028,5.002,7.477C1258.235,386.961,1267.486,396.171,1278.759,401.151
				z"/>
		</g>
		<g>
			<path style="fill:#171932;" d="M1049.068,304.726c-12.615,18.081-41.531,16.025-41.815,15.991
				c-1.455-0.188-2.565,0.908-2.67,2.272c-0.112,1.368,0.904,2.564,2.271,2.671c0.253,0.023,1.604,0.121,3.727,0.121
				c8.846,0,31.058-1.737,42.558-18.217c3.441-4.933,6.241-11.67,9.478-19.47c9.815-23.614,23.256-55.962,67.801-67.006
				c20.872-5.166,40.672,2.113,57.504,13.544c29.859,20.276,50.344,53.669,50.663,54.198c0.703,1.173,2.233,1.551,3.401,0.843
				c1.172-0.708,1.551-2.229,0.848-3.403c-0.209-0.348-0.911-1.493-2.031-3.215c-2.653-4.072-7.762-11.498-14.847-20.022
				c-4.298-5.172-9.319-10.727-14.966-16.188c-16.127-15.594-37.311-30.246-61.093-32.189c-6.706-0.549-13.608-0.133-20.672,1.614
				c-35.208,8.73-51.887,29.837-62.337,50.215c-3.494,6.812-6.291,13.542-8.85,19.704
				C1054.906,293.726,1052.202,300.236,1049.068,304.726z"/>
		</g>
		<g>
			<path style="fill:#171932;" d="M1112.325,319.529c0.283-1.337-0.586-2.649-1.928-2.924c-1.288-0.304-2.654,0.587-2.926,1.928
				c-0.054,0.254-3.111,14.371-11.91,29.423c-7.103,12.149-17.941,24.904-34.036,31.483c-36.334,14.861-79.869,0.097-80.302-0.05
				c-1.299-0.446-2.704,0.242-3.159,1.533c-0.446,1.296,0.238,2.709,1.53,3.159c1.221,0.421,20.684,7.032,44.724,7.032
				c12.435,0,26.096-1.775,39.088-7.081c1.828-0.748,3.531-1.626,5.233-2.504C1102.736,363.907,1111.938,321.422,1112.325,319.529z"
				/>
		</g>
		<g>
			<path style="fill:#9884B5;" d="M1171.932,855.936c42.41-11.347,45.887-42.448,45.887-42.448s-10.725,18.336-33.39,18.305
				c-26.062-0.035-38.945-16.346-38.945-16.346S1129.527,867.281,1171.932,855.936z"/>
		</g>
		<g>
			<path style="fill:#D4D7FF;" d="M893.513,1254.228c20.782,54.204,48.178,84.818,48.178,84.818l12.313,131.491
				c0,0-13.893-220.25-44.162-284.732c-14.065-29.963-33.79-57.188-50.914-77.843
				C859.085,1109.012,872.851,1200.335,893.513,1254.228z"/>
		</g>
		<g>
			<path style="fill:#D4D7FF;" d="M1536.528,1059.124c0.036,0.145,0.065,0.283,0.101,0.428l-0.043-0.488
				C1536.586,1059.064,1536.531,1059.121,1536.528,1059.124z"/>
		</g>
		<g>
			<path style="fill:#D4D7FF;" d="M1528.167,1068.024c-16.171,17.731-52.032,59.858-73.575,106.489
				c3.585-6.597,6.044-9.603,6.044-9.603s-20.894,51.96-10.609,124.352c10.281,72.39,42.259,181.028,42.259,181.028h80.705
				l-4.052-45.772l-29.217-330.034C1538.605,1091.777,1534.902,1081.339,1528.167,1068.024z"/>
		</g>
		<g>
			<path style="fill:#9884B5;" d="M941.691,1339.046c0,0-27.395-30.615-48.178-84.818c-20.662-53.892-34.428-145.215-34.586-146.265
				c-0.001-0.006-0.008-0.049-0.008-0.049c-2.727-7.93-36.289-40.757-36.289-40.757l-12.022,160.151L795.88,1423.51l-3.531,47.027
				h161.656L941.691,1339.046z"/>
		</g>
		<g>
			<path style="fill:#9884B5;" d="M1450.027,1289.262c-10.285-72.392,10.609-124.352,10.609-124.352s-2.459,3.006-6.044,9.603
				c-5.591,10.286-13.943,29.377-20.159,59.978c-7.769,38.25-11.775,224.459-12.001,235.273c-0.006,0.324-0.01,0.527-0.01,0.527
				h69.864C1492.286,1470.29,1460.309,1361.652,1450.027,1289.262z"/>
		</g>
		<g>
			<path style="fill:#171932;" d="M1162.837,1071.602l62.813-2.134c1.246-0.043,2.268-1.004,2.39-2.243l14.11-145.766
				c0.129-1.364-0.867-2.575-2.233-2.709c-1.232-0.098-2.575,0.862-2.709,2.233l-13.898,143.602l-58.255,1.975l-15.022-140.469
				c-0.145-1.366-1.474-2.318-2.729-2.203c-1.366,0.142-2.35,1.366-2.205,2.725l15.269,142.768
				C1160.506,1070.647,1161.57,1071.602,1162.837,1071.602z"/>
		</g>
		<g>
			<path style="fill:#D4D7FF;" d="M1336.149,333.422c2.472,6.343,7.359,21.297,9.319,43.621c0.981,11.193,1.244,24.18,0.056,38.945
				c-3.572,44.381-8.089,76.164-11.89,82.856c0,0,3.087-1.047,7.45-1.538c5.241-0.588,12.358-0.36,18.616,3.622
				c10.519,6.695,10.514,39.618,10.438,45.041c-0.006,0.491-0.012,0.839-0.012,0.839s13.555-37.537,3.129-50.051
				c-2.789-3.346-6.023-5.747-9.268-7.544c-8.888-4.917-17.843-4.967-17.843-4.967s20.493-95.284,15.817-121.989
				c-0.061-0.343-0.107-0.728-0.176-1.049c-2.909-13.582-8.973-21.25-14.633-25.617c-1.425-1.1-2.815-2.002-4.132-2.717
				c-4.693-2.55-8.346-2.945-8.346-2.945S1335.258,331.132,1336.149,333.422z"/>
		</g>
		<g>
			<path style="fill:#D4D7FF;" d="M1253.754,734.783c0,0,0.233-0.128,0.602-0.331c1.352-0.745,5.004-2.768,9.774-5.493
				c2.289-1.308,4.812-2.765,7.471-4.327c12.352-7.252,27.268-16.535,31.303-21.304c7.208-8.519,22.281-100.923,22.281-100.923
				s-0.675,3.194-1.927,8.343c-4.074,16.773-14.489,55.098-29.531,78.164C1274.069,719.054,1253.754,734.783,1253.754,734.783z"/>
		</g>
		<g>
			<rect x="1520" y="629.187" style="fill:#0C8FE7;" width="277.187" height="22.406"/>
		</g>
		<g>
			<rect x="1841.014" y="629.187" style="fill:#0C8FE7;" width="126.163" height="22.406"/>
		</g>
		<g>
			<rect x="1520" y="678.405" style="fill:#0C8FE7;" width="450.24" height="22.406"/>
		</g>
	</g>
</g>
</svg>
